<svg id="Layer_2" data-name="Layer 2" xmlns="http://www.w3.org/2000/svg" viewBox="0 0 100 100"><defs><style>.cls-1{fill:#231f20;}.cls-2{fill:#fff;}</style></defs><title>ab-logo</title><path class="cls-1" d="M100,100H0V0H100Z"/><path class="cls-2" d="M25,48.75H75v2.5H25Zm18.83-7.51H36.21L45.32,11.5h9.31l.08.18,9.08,29.56H56.17l-1.58-5.69H45.4ZM47.1,29.43h5.71L50,19ZM77.45,11.5v6.25h4.78v64.5H77.45V88.5h11v-77Zm-65.93,0v77h11V82.25H17.77V17.75h4.78V11.5ZM61.44,65.13v2.53a5.54,5.54,0,0,1-3.81,5.29,5.55,5.55,0,0,1,3.81,5.3v2.88c0,4.17-2.47,7.37-8.36,7.37h-14V58.76H54C58.75,58.76,61.44,61.23,61.44,65.13ZM45.73,70.78h6.45a2.48,2.48,0,0,0,2.71-2.64V66.43c0-2-1.56-2.4-3.64-2.4H45.73Zm9.17,8.34a2.48,2.48,0,0,0-2.71-2.64H45.73v6.75h5.52c2.08,0,3.64-.4,3.64-2.4Z"/></svg>